<svg width="675" height="294" viewBox="0 0 675 294" fill="none" xmlns="http://www.w3.org/2000/svg">
<g clip-path="url(#clip0)">
<path d="M566.377 177.394L560.505 170.163C551.698 159.542 540.406 151.181 526.631 145.079C520.534 142.367 513.759 140.108 506.306 138.3C502.016 137.396 498.854 136.718 495.693 136.266C493.66 135.814 491.628 135.588 489.595 135.362C488.014 135.136 486.208 134.91 484.401 134.684C467.238 132.424 451.204 128.357 436.751 122.933C433.816 121.803 430.88 120.673 427.944 119.317C429.073 127.679 429.977 135.588 430.428 139.43C430.654 141.689 430.88 143.949 431.106 145.983C431.106 146.887 431.332 147.565 431.332 148.469L431.783 153.666L427.718 150.277L418.008 142.141L417.33 141.463L417.104 140.56L416.653 135.814C415.975 130.616 415.524 124.063 414.62 117.51C414.394 115.702 414.169 113.894 413.943 111.86C406.039 107.34 400.167 103.047 395.425 98.5273L383.908 87.6802L397.909 94.9116C402.651 97.1714 407.62 99.4312 412.814 101.691C412.362 98.0753 412.136 94.9116 411.685 92.4258L411.459 90.166C409.878 79.319 408.523 68.246 407.394 57.1729L406.039 42.9362L411.685 56.043C415.749 65.7602 419.363 76.6072 422.976 90.166C423.879 94.0077 425.008 99.4312 426.138 106.437C430.654 108.018 435.622 109.374 440.816 110.73C454.818 114.346 469.271 117.058 485.53 118.865C486.659 118.865 487.789 119.091 488.918 119.317C491.853 119.543 494.789 119.995 497.725 120.447C502.242 121.125 506.758 122.255 510.371 123.159C519.404 125.645 527.308 128.809 534.083 132.876C541.536 137.17 548.31 142.593 553.505 148.243C559.376 155.022 563.215 161.802 564.57 168.129L566.377 177.394Z" fill="#3FA80E"/>
<path d="M415.975 44.0661L408.523 38.4166C397.457 30.0554 384.585 24.6318 369.906 21.9201C363.357 20.7902 356.357 20.1122 348.904 20.1122H348.678C344.388 20.1122 341 20.3382 337.839 20.5642C335.806 20.5642 333.774 20.7902 331.741 21.2421C330.161 21.4681 328.354 21.6941 326.547 21.6941C318.643 22.598 310.739 22.824 303.061 22.824C294.254 22.824 285.672 22.372 277.543 21.2421C269.413 20.1122 261.509 18.5304 253.605 16.2706C244.572 13.5588 237.571 10.8471 231.474 7.45735L217.924 -0.45195L233.28 3.16373C246.604 6.32745 261.057 8.13529 278.898 8.58725C280.93 8.58725 282.963 8.58725 285.221 8.58725C297.641 8.58725 310.514 7.68333 324.289 5.87549C325.418 5.64951 326.547 5.64951 327.677 5.42353C330.612 4.97157 333.548 4.74559 336.484 4.51961C339.42 4.29363 342.581 4.06765 346.42 4.06765C347.324 4.06765 348.227 4.06765 349.13 4.06765C358.389 4.29363 366.971 5.64951 374.649 7.90931C383.004 10.3951 390.683 14.0108 397.006 18.5304C404.458 23.7279 409.426 29.3774 412.362 35.2529L415.975 44.0661Z" fill="#3FA80E"/>
<path d="M347.775 166.773L340.097 156.83C328.806 142.367 318.192 131.52 307.578 123.611C298.77 117.058 289.512 112.312 280.027 110.052C277.091 109.374 273.929 108.696 270.994 108.47C270.542 108.47 270.316 108.47 270.09 108.47L267.606 108.244L259.476 108.018C258.573 108.018 257.444 108.018 256.315 108.244C255.637 108.244 254.96 108.244 254.282 108.244L251.798 108.47L249.314 108.922C242.088 109.6 234.861 111.634 228.086 113.668C221.537 115.702 214.762 118.639 207.31 122.707C200.535 126.097 193.986 130.39 186.986 135.362L176.823 142.593L182.017 131.294C185.405 123.837 190.373 116.606 197.374 109.6C203.697 103.047 210.923 97.6234 218.827 93.1038C220.634 91.9739 222.666 91.0699 224.473 90.166L226.054 89.4881C227.86 88.8101 229.441 87.9062 231.474 87.2283L232.377 87.0023C234.184 86.3244 235.99 85.6464 237.797 85.1945C239.604 84.7425 241.41 84.2905 243.217 83.8386L245.701 83.1606C246.604 82.9347 247.282 82.7087 248.185 82.7087L253.831 82.0307C255.411 81.8048 256.992 81.5788 258.573 81.5788H258.799H261.057C258.573 72.5396 255.863 64.4043 252.476 56.947C247.282 45.648 241.862 36.6088 235.539 28.6995L221.311 10.6211L240.958 21.2421C250.895 26.6656 260.154 35.4789 268.058 47.9078C274.607 58.0769 279.349 69.8278 282.285 82.7087V82.9347C288.382 84.2905 294.48 86.5503 300.351 89.7141C308.707 94.0077 316.159 99.8832 322.708 106.889C328.806 113.668 334 121.125 338.065 129.261C342.355 138.3 345.065 146.435 346.194 154.57L347.775 166.773Z" fill="#3FA80E"/>
<path d="M60.0703 278.181V294H51.0371C37.0358 294 25.0669 289.254 15.1305 279.763C5.19404 270.272 0 258.069 0 243.38V145.757C0 131.52 11.5172 119.769 25.9702 119.769V164.287H59.8444C59.8444 178.072 48.7789 189.145 35.0033 189.145H26.1961V243.38C26.1961 250.838 28.4543 256.939 33.4226 261.685C38.3908 266.43 44.0365 268.916 51.263 268.916C56.0054 269.142 60.0703 273.21 60.0703 278.181Z" fill="#606060"/>
<path d="M160.112 179.88V189.597C160.112 197.733 150.401 201.574 144.756 195.925C139.336 190.501 133.69 187.789 127.367 187.789C121.044 187.789 115.624 190.049 110.882 195.021C105.913 199.766 103.655 205.19 103.655 211.517V268.238C103.655 282.475 92.1378 294.226 77.6848 294.226V165.643H103.655V169.711H103.881C111.559 165.191 119.915 163.158 129.174 163.158C138.884 163.158 147.917 166.321 156.499 172.875C158.757 174.231 160.112 176.942 160.112 179.88Z" fill="#606060"/>
<path d="M675 179.88V189.597C675 197.733 665.289 201.574 659.644 195.925C654.224 190.501 648.578 187.789 642.255 187.789C635.932 187.789 630.512 190.049 625.77 195.021C620.801 199.766 618.543 205.19 618.543 211.517V268.238C618.543 282.475 607.026 294.226 592.573 294.226V165.643H618.543V169.711H618.769C626.447 165.191 634.803 163.158 644.062 163.158C653.772 163.158 662.805 166.321 671.387 172.875C673.645 174.231 675 176.942 675 179.88Z" fill="#606060"/>
<path d="M303.739 149.373V164.739L299.222 161.35C296.964 159.542 294.48 157.96 292.221 156.604C280.027 149.599 267.155 145.983 254.057 145.983C233.732 145.983 216.117 153.214 201.439 167.677C186.986 182.14 179.533 199.766 179.533 219.879C179.533 240.217 186.986 257.617 201.439 272.08C215.892 286.543 233.732 293.774 254.057 293.774C267.38 293.774 280.027 290.384 291.77 283.379C294.48 281.797 296.964 280.215 299.448 278.181L303.965 274.566V290.384C317.514 289.028 328.128 277.503 328.128 263.493V176.038C327.902 162.254 317.288 150.729 303.739 149.373ZM289.512 256.035C279.575 266.204 268.058 271.176 254.282 271.176C240.281 271.176 228.764 266.204 218.602 256.035C208.439 245.866 203.471 234.115 203.471 220.33C203.471 206.546 208.439 194.795 218.602 184.4C228.764 174.005 240.507 169.033 254.282 169.033C268.058 169.033 279.575 174.005 289.512 184.174C299.448 194.343 304.416 206.32 304.416 220.105C304.416 234.115 299.448 245.866 289.512 256.035Z" fill="#3FA80E"/>
<path d="M417.104 278.181V294H408.071C394.07 294 382.101 289.254 372.165 279.763C362.228 270.272 357.034 258.069 357.034 243.38V145.757C357.034 131.52 368.551 119.769 383.004 119.769V164.287H416.879C416.879 178.072 405.813 189.145 392.038 189.145H383.23V243.38C383.23 250.838 385.714 256.939 390.457 261.685C395.425 266.43 401.296 268.916 408.297 268.916C413.04 269.142 417.104 273.21 417.104 278.181Z" fill="#606060"/>
<path d="M540.181 188.015C527.986 175.812 513.081 169.711 495.918 169.711C478.755 169.711 463.851 175.812 451.656 188.015C439.461 200.218 433.138 214.681 433.138 231.404C433.138 247.9 439.236 262.815 451.204 275.244C463.173 287.673 477.852 294 494.789 294H496.822C513.759 294 528.438 287.673 540.407 275.244C552.15 262.815 558.247 248.126 558.247 231.63C558.473 214.907 552.375 200.218 540.181 188.015ZM534.309 232.081C534.309 242.703 530.696 251.742 523.018 259.425C515.565 267.108 506.758 270.95 496.144 270.95C485.53 270.95 476.723 267.108 468.819 259.425C461.141 251.742 457.302 242.703 457.302 232.307C457.302 221.686 461.141 212.873 468.819 204.738C476.497 196.829 485.53 192.987 495.918 192.987C506.306 192.987 515.114 196.829 522.792 204.512C530.696 212.421 534.309 221.46 534.309 232.081Z" fill="#3FA80E"/>
</g>
<defs>
<clipPath id="clip0">
<rect width="675" height="294" fill="white"/>
</clipPath>
</defs>
</svg>
